<svg version="1.1" id="Layer_1" xmlns="http://www.w3.org/2000/svg" xmlns:xlink="http://www.w3.org/1999/xlink" x="0px" y="0px" viewBox="0 0 50 50" style="enable-background:new 0 0 50 50;" xml:space="preserve">
<style type="text/css">
	.st0{fill:#2980B9;}
	.st1{fill:#037CC6;}
	.st2{fill:#9B59B6;}
	.st3{fill:#27AE60;}
	.st4{fill:#E74C3C;}
	.st5{fill:#34495E;}
	.st6{fill:#D35400;}
	.st7{fill:#E22D2D;}
	.st8{fill:#1ABC9C;}
	.st9{fill:#F39C12;}
	.st10{fill:#E67E22;}
	.st11{fill:url(#SVGID_1_);}
	.st12{fill:url(#SVGID_2_);}
	.st13{fill:url(#SVGID_3_);}
	.st14{fill:url(#SVGID_4_);}
	.st15{fill:url(#SVGID_5_);}
	.st16{fill:url(#SVGID_6_);}
	.st17{fill:url(#SVGID_7_);}
	.st18{fill:url(#SVGID_8_);}
	.st19{fill:url(#SVGID_9_);}
	.st20{fill:url(#SVGID_10_);}
	.st21{fill:url(#SVGID_11_);}
	.st22{fill:url(#SVGID_12_);}
	.st23{fill:url(#SVGID_13_);}
	.st24{fill:url(#SVGID_14_);}
	.st25{fill:url(#SVGID_15_);}
	.st26{fill:url(#SVGID_16_);}
	.st27{fill:url(#SVGID_17_);}
	.st28{fill:url(#SVGID_18_);}
	.st29{fill:url(#SVGID_19_);}
	.st30{fill:url(#SVGID_20_);}
	.st31{fill:url(#SVGID_21_);}
	.st32{fill:url(#SVGID_22_);}
	.st33{fill:url(#SVGID_23_);}
	.st34{fill:url(#SVGID_24_);}
	.st35{fill:url(#SVGID_25_);}
	.st36{fill:url(#SVGID_26_);}
	.st37{fill:url(#SVGID_27_);}
	.st38{fill:url(#SVGID_28_);}
	.st39{fill:url(#SVGID_29_);}
	.st40{fill:url(#SVGID_30_);}
	.st41{fill:url(#SVGID_31_);}
	.st42{fill:url(#SVGID_32_);}
	.st43{fill:#0C0C0C;}
	.st44{fill:none;stroke:#0C0C0C;stroke-width:2;stroke-linecap:round;stroke-linejoin:round;stroke-miterlimit:10;}
	.st45{fill:#FFFFFF;stroke:#0C0C0C;stroke-width:2;stroke-linecap:round;stroke-linejoin:round;stroke-miterlimit:10;}
	.st46{fill:#FB0101;}
	.st47{fill:url(#SVGID_33_);}
	.st48{fill:url(#SVGID_34_);}
	.st49{fill:#403D3D;}
	.st50{fill:#926DDE;}
	.st51{fill:#33CABB;}
</style>
<g>
	<g>
		<path class="st43" d="M25.1,46.1c-8.7,0-15.7-7-15.7-15.7v-4.6c0-3.3,2.7-5.9,5.9-5.9h19.5c3.3,0,5.9,2.7,5.9,5.9v4.6
			C40.8,39,33.7,46.1,25.1,46.1z M15.3,21.8c-2.2,0-3.9,1.8-3.9,3.9v4.6c0,7.6,6.1,13.7,13.7,13.7s13.7-6.1,13.7-13.7v-4.6
			c0-2.2-1.8-3.9-3.9-3.9H15.3z" id="id_101" style="fill: rgb(255, 255, 255);"></path>
		<path class="st43" d="M34.3,21.8c-0.6,0-1-0.4-1-1V18c0-4.5-3.7-8.2-8.2-8.2s-8.2,3.7-8.2,8.2v2.8c0,0.6-0.4,1-1,1
			c-0.6,0-1-0.4-1-1V18c0-5.6,4.6-10.2,10.2-10.2S35.3,12.4,35.3,18v2.8C35.3,21.3,34.8,21.8,34.3,21.8z" id="id_102" style="fill: rgb(255, 255, 255);"></path>
		<path class="st43" d="M25.1,36.4c-0.6,0-1-0.4-1-1v-5.5c0-0.6,0.4-1,1-1s1,0.4,1,1v5.5C26.1,36,25.6,36.4,25.1,36.4z" id="id_103" style="fill: rgb(255, 255, 255);"></path>
	</g>
</g>
</svg>